<?xml version="1.0" encoding="utf-8"?>
<!-- Generator: Adobe Illustrator 23.0.0, SVG Export Plug-In . SVG Version: 6.00 Build 0)  -->
<svg version="1.1" id="Layer_1" xmlns="http://www.w3.org/2000/svg" xmlns:xlink="http://www.w3.org/1999/xlink" x="0px" y="0px"
	 viewBox="0 0 1000 1000" style="enable-background:new 0 0 1000 1000;" xml:space="preserve">
<style type="text/css">
	.st0{fill:#848484;}
</style>
<g>
	<path class="st0" d="M710.1,655.3c35.6-1.2,71.1-4.6,106.5-8.1c36-3.6,73.6-7.7,107.6-20.1c19.8-7.2,19.7-33.1,0-40.3
		c-34-12.4-71.6-16.5-107.6-19.5c-35.4-2.9-71-5.3-106.5-5.1c-18.9,0.1-37.7,0.4-56.5,0.8c1.2-11.9,2.4-23.8,3.5-35.7
		c4.9-50.3,8.7-100.6,11.1-150.9c18.4-0.6,36.8-1.2,55.3-1.8c35.6-1.2,71.1-4.6,106.5-8.1c36-3.6,73.6-7.7,107.6-20.1
		c19.8-7.2,19.7-33.1,0-40.3c-34-12.4-71.6-16.5-107.6-19.5c-35.4-2.9-71-5.3-106.5-5.1c-17.5,0.1-35,0.3-52.4,0.7
		c0.6-47.3-0.2-94.7-2.6-142.1c-0.5-10.4-16.3-13.6-18.9-2.6c-11.3,48.5-21.2,97.2-30,146c-37.8,1.2-75.6,2.8-113.4,4.5
		c-38.8,1.7-77.5,3.8-116.2,6c1.1-54.2,0.4-108.5-2.3-162.8c-0.5-10.4-16.3-13.6-18.9-2.6c-13,56-24.2,112.2-34,168.7
		c-13.8,0.9-27.5,1.7-41.3,2.7c-74,5-150.3,8.5-222.6,25.8c-43.8,10.5-31.6,73,10.2,75.5c70.4,4.2,142-3.9,212.4-8.4
		c8.7-0.6,17.4-1.1,26.1-1.6c-5.8,39.3-11.2,78.7-16,118.2c-2.8,23.4-5.8,46.8-8.7,70.2c-4.9,0.3-9.9,0.6-14.8,1
		c-74,5-150.3,8.5-222.6,25.8c-43.8,10.5-31.6,73,10.2,75.5c70.4,4.2,142-3.9,212.4-8.4c0.9-0.1,1.9-0.1,2.8-0.2
		c-1.3,9.8-2.5,19.6-3.8,29.4c-8.4,63.8-15.9,129.1-8.2,193.1c3.2,26,35.2,30.9,45.1,6.1c24.1-60.2,32.9-126.1,40.2-190.4
		c1.6-14.2,3.2-28.5,4.7-42.8c45.4-2.5,90.8-4.7,136.2-6.6c23.1-0.9,46.3-1.7,69.4-2.5c-2.2,17.3-4.4,34.6-6.7,52
		c-8.4,63.8-15.9,129.1-8.2,193.1c3.2,26,35.2,30.9,45.1,6.1c24.1-60.2,32.9-126.1,40.2-190.4c2.4-21,4.6-42.1,6.9-63.1
		C666,656.7,688.1,656,710.1,655.3z M492.8,568.7c-40.7,1.8-81.4,4-122.1,6.3c1.9-18.9,3.8-37.8,5.6-56.7
		c4.3-43.6,7.7-87.2,10.1-130.9c41.4-2.2,82.8-4.2,124.2-5.9c31-1.3,62.1-2.3,93.1-3.2c-7.2,46.6-13.5,93.3-19.2,140.2
		c-1.9,15.6-3.9,31.2-5.8,46.7C550,566.2,521.4,567.4,492.8,568.7z"/>
	<path class="st0" d="M953.2,938.2C937.1,883,890.6,838.5,850.8,799c-2-1.9-3.9-3.9-5.8-5.8c18.4-16.7,35.5-35,43.9-55.8
		c11.4-28.4-25.4-49.3-48.2-37.1c-18,9.6-34.9,22.7-51.1,36.5c-21.8-21.6-44.4-42.2-69.1-59.4c-31.9-22.2-75.3,21.8-53.6,53.6
		c16,23.6,35.2,45.3,55.3,66.3c-19,19.5-36.1,41.4-47.5,65.3c-7.6,15.9,5.1,38.2,24.5,31.9c27.8-9.1,53.7-24.6,77.2-42.7
		c3.6,3.6,7.2,7.3,10.7,10.9c39,40.3,82.9,86.9,137.9,103.7C941.6,971.6,958,954.8,953.2,938.2z"/>
	<path class="st0" d="M195,282c56.6-7.5,93.5-60.4,94.7-115.7c0.7-30.7-9.4-63.6-36.4-80.7c-12.5-7.9-29.2-14.4-44.1-14.4
		c-1.1,0-2.2,0.1-3.3,0.2c17.9-17.1-5.4-49.3-31.2-38.1c-54.8,23.8-90,90.6-88.3,149.1C88.3,244.4,131.1,290.5,195,282z
		 M145.6,164.1c3.5-20.2,9.6-40.1,20.2-56.8c1,1.5,2.5,2.8,4.4,3.8c6.9,3.2,11.9,8.8,18.7,12.3c8.8,4.6,18.5,4.8,27.4,8.4
		c15.8,6.5,22.9,21.6,25.9,37.8c6.5,36.1-16.8,80-58.8,74C144.5,238.1,140.2,195.4,145.6,164.1z"/>
</g>
</svg>
